<!DOCTYPE svg PUBLIC "-//W3C//DTD SVG 1.1//EN" "http://www.w3.org/Graphics/SVG/1.1/DTD/svg11.dtd">
<!-- Uploaded to: SVG Repo, www.svgrepo.com, Transformed by: SVG Repo Mixer Tools -->
<svg fill="#ffffff" width="256px" height="256px" viewBox="0 0 24 24" xmlns="http://www.w3.org/2000/svg" stroke="#ffffff" stroke-width="0.00024000000000000003" transform="rotate(0)">
<g id="SVGRepo_bgCarrier" stroke-width="0"/>
<g id="SVGRepo_tracerCarrier" stroke-linecap="round" stroke-linejoin="round" stroke="#CCCCCC" stroke-width="0.096"/>
<g id="SVGRepo_iconCarrier">
<path fill-rule="evenodd" d="M11.03 2.59a1.5 1.5 0 011.94 0l7.5 6.363a1.5 1.5 0 01.53 1.144V19.5a1.5 1.5 0 01-1.5 1.5h-5.75a.75.75 0 01-.75-.75V14h-2v6.25a.75.75 0 01-.75.75H4.5A1.5 1.5 0 013 19.5v-9.403c0-.44.194-.859.53-1.144l7.5-6.363zM12 3.734l-7.5 6.363V19.5h5v-6.25a.75.75 0 01.75-.75h3.5a.75.75 0 01.75.75v6.25h5v-9.403L12 3.734z"/>
</g>
</svg>